<?xml version="1.0" standalone="no"?><!DOCTYPE svg PUBLIC "-//W3C//DTD SVG 1.1//EN" "http://www.w3.org/Graphics/SVG/1.1/DTD/svg11.dtd"><svg t="1646454738878" class="icon" viewBox="0 0 1375 1024" version="1.1" xmlns="http://www.w3.org/2000/svg" p-id="13907" xmlns:xlink="http://www.w3.org/1999/xlink" width="30" height="20"><defs><style type="text/css"></style></defs><path d="M1038.23 374.7c84.86-10.83 121.78 23.45 84.86 83.06l30.7 34.31c65.91-53.27 28.89-178.76-102.02-163.41l-13.54 46.04z" p-id="13908"></path><path d="M1153.34 117.54m-90.73 0a90.73 90.73 0 1 0 181.46 0 90.73 90.73 0 1 0-181.46 0Z" p-id="13909"></path><path d="M1136.94 700.8l-32.8-62.47c-18.17 5.33-38.65-1.84-60.49-16.25l55.85 93.46c-7.22 8-11.62 18.6-11.62 30.22 0 24.93 20.21 45.14 45.14 45.14s45.14-20.21 45.14-45.14c0-23.61-18.13-42.98-41.22-44.96z" p-id="13910"></path><path d="M248.27 748.92m-46.72 0a46.72 46.72 0 1 0 93.44 0 46.72 46.72 0 1 0-93.44 0Z" p-id="13911"></path><path d="M248.27 500.65c-137.12 0-248.27 111.16-248.27 248.27s111.16 248.27 248.27 248.27c137.12 0 248.27-111.16 248.27-248.27S385.39 500.65 248.27 500.65z m0 445.53c-108.95 0-197.26-88.32-197.26-197.26 0-108.95 88.32-197.26 197.26-197.26s197.26 88.32 197.26 197.26-88.31 197.26-197.26 197.26z" p-id="13912"></path><path d="M248.27 702.2l197.26-328.4h-22.63c-8.62 0-15.54-7.12-15.3-15.74l1.85-65.45c0.23-8.08 6.84-14.51 14.92-14.51h105.56V165.25c3.16-34.76 32.05-69.52 78.54-69.52l362.03 5.42c58.23 14.44 69.42 59.15 60.49 107.12l-39.85 170.96c-1.05 4.5 0.25 9.22 3.45 12.55l130.29 135.5c28.29 46.65-33.1 75.54-55.97 52.36l-154.99-156a33.343 33.343 0 0 1-8.38-32.78l27.13-93.77c1.32-4.55-2.08-9.09-6.81-9.11l-156.37-0.81c-3.61-0.02-5.55 4.24-3.16 6.95l82.29 93.21c6.25 18.08 4.43 34.39-6.32 48.75l-159.8 158.89-1.81-150.77 25.72-25.2c5.27-5.16 5.44-13.59 0.38-18.96l-58.14-61.67c-3.73-3.95-10.37-1.31-10.36 4.12l0.87 453.13c-15.35 60.71-102.02 51.69-112.85 0V359.07c0-4.59-6.01-6.3-8.44-2.41L281.67 736.73l-33.4-34.53z" p-id="13913"></path><path d="M1166.59 503.81c7.35 12.85 11.57 27.6 11.57 43.33 0 4.09-0.31 8.11-0.86 12.06 82.32 23.55 142.6 99.57 142.6 189.72 0 108.95-88.03 197.26-196.62 197.26s-196.62-88.32-196.62-197.26c0-64.33 30.7-121.45 78.19-157.46-0.63-1.07-1.25-2.16-1.84-3.26l-29.78-34.23c-57.58 45.47-94.54 115.89-94.54 194.96 0 137.12 111.16 248.27 248.27 248.27s248.27-111.16 248.27-248.27c0-123.64-90.36-226.15-208.64-245.12z" p-id="13914"></path></svg>