<?xml version="1.0" standalone="no"?><!DOCTYPE svg PUBLIC "-//W3C//DTD SVG 1.1//EN" "http://www.w3.org/Graphics/SVG/1.1/DTD/svg11.dtd"><svg t="1646714391033" class="icon" viewBox="0 0 1024 1024" version="1.1" xmlns="http://www.w3.org/2000/svg" p-id="2816" xmlns:xlink="http://www.w3.org/1999/xlink" width="20" height="20"><defs><style type="text/css"></style></defs><path d="M270.984 223.669c-27.146 0-49.157-22.011-49.157-49.161V49.157C221.828 22.011 243.838 0 270.984 0c27.15 0 49.161 22.011 49.161 49.157v125.351c0 27.15-22.01 49.161-49.161 49.161zM751.266 223.669c-27.146 0-49.158-22.011-49.158-49.161V49.157C702.107 22.011 724.119 0 751.266 0c27.15 0 49.156 22.011 49.156 49.157v125.351c0 27.15-22.006 49.161-49.156 49.161zM311.836 891.936h-146.92c-15.533 0-28.124-12.592-28.124-28.125V716.892c0-15.534 12.591-28.125 28.124-28.125h146.92c15.533 0 28.124 12.591 28.124 28.125v146.919c0 15.533-12.591 28.125-28.124 28.125zM585.458 631.89h-146.92c-15.533 0-28.125-12.591-28.125-28.125V456.846c0-15.533 12.592-28.125 28.125-28.125h146.92c15.533 0 28.124 12.592 28.124 28.125v146.919c0 15.534-12.591 28.125-28.124 28.125zM585.458 891.936h-146.92c-15.533 0-28.125-12.592-28.125-28.125V716.892c0-15.534 12.592-28.125 28.125-28.125h146.92c15.533 0 28.124 12.591 28.124 28.125v146.919c0 15.533-12.591 28.125-28.124 28.125zM859.083 631.89h-146.92c-15.533 0-28.124-12.591-28.124-28.125V456.846c0-15.533 12.591-28.125 28.124-28.125h146.92c15.533 0 28.125 12.592 28.125 28.125v146.919c0 15.534-12.592 28.125-28.125 28.125zM859.083 891.936h-146.92c-15.533 0-28.124-12.592-28.124-28.125V716.892c0-15.534 12.591-28.125 28.124-28.125h146.92c15.533 0 28.125 12.591 28.125 28.125v146.919c0 15.533-12.592 28.125-28.125 28.125z" p-id="2817" fill="#BDBDBD"></path><path d="M910.608 116.914h-59.312v57.594c0 54.678-44.481 99.161-99.156 99.161-54.676 0-99.158-44.483-99.158-99.161v-57.594H371.02v57.594c0 54.678-44.483 99.161-99.161 99.161-54.675 0-99.157-44.483-99.157-99.161v-57.594h-59.311C50.77 116.914 0.005 167.679 0.005 230.3v680.315C0.006 973.235 50.771 1024 113.392 1024h797.216c62.621 0 113.385-50.765 113.385-113.386V230.299c0-62.621-50.764-113.385-113.385-113.385z m53.385 793.7c0 29.437-23.949 53.386-53.385 53.386H113.392c-29.437 0-53.386-23.949-53.386-53.386V361.02h903.987v549.594z" p-id="2818" fill="#BDBDBD"></path></svg>