<?xml version="1.0" standalone="no"?><!DOCTYPE svg PUBLIC "-//W3C//DTD SVG 1.1//EN" "http://www.w3.org/Graphics/SVG/1.1/DTD/svg11.dtd"><svg t="1646416901117" class="icon" viewBox="0 0 1024 1024" version="1.1" xmlns="http://www.w3.org/2000/svg" p-id="5729" xmlns:xlink="http://www.w3.org/1999/xlink" width="48" height="48"><defs><style type="text/css"></style></defs><path d="M870.4 153.6C776.533333 51.2 648.533333 0 512 0S247.466667 51.2 153.6 153.6 0 375.466667 0 512s51.2 264.533333 153.6 358.4S375.466667 1024 512 1024s264.533333-51.2 358.4-153.6S1024 648.533333 1024 512s-51.2-264.533333-153.6-358.4z m-34.133333 682.666667c-85.333333 85.333333-196.266667 136.533333-324.266667 136.533333s-238.933333-51.2-324.266667-136.533333C8.533333 657.066667 8.533333 375.466667 187.733333 196.266667 273.066667 110.933333 384 59.733333 512 59.733333s238.933333 51.2 324.266667 136.533334c170.666667 170.666667 170.666667 460.8 0 640z" fill="#F15F5F" p-id="5730"></path><path d="M759.466667 264.533333c-17.066667-8.533333-34.133333-8.533333-42.666667 0L512 469.333333 307.2 264.533333c-8.533333-8.533333-25.6-8.533333-42.666667 0-8.533333 17.066667-8.533333 34.133333 0 42.666667L469.333333 512 264.533333 716.8c-8.533333 8.533333-8.533333 25.6 0 42.666667 8.533333 8.533333 17.066667 8.533333 25.6 8.533333s17.066667 0 25.6-8.533333L512 554.666667l204.8 204.8c0 8.533333 8.533333 8.533333 17.066667 8.533333s17.066667 0 25.6-8.533333c8.533333-17.066667 8.533333-34.133333 0-42.666667L554.666667 512l204.8-204.8c8.533333-8.533333 8.533333-25.6 0-42.666667z" fill="#F15F5F" p-id="5731"></path></svg>