<?xml version="1.0" standalone="no"?><!DOCTYPE svg PUBLIC "-//W3C//DTD SVG 1.1//EN" "http://www.w3.org/Graphics/SVG/1.1/DTD/svg11.dtd"><svg t="1646713448508" class="icon" viewBox="0 0 1024 1024" version="1.1" xmlns="http://www.w3.org/2000/svg" p-id="8862" xmlns:xlink="http://www.w3.org/1999/xlink" width="25" height="25"><defs><style type="text/css"></style></defs><path d="M828.396043 432.370405C799.656489 656.334269 523.622712 1005.348198 479.003492 1003.460198c-44.73383-1.893116-327.779302-344.380398-349.392552-571.089793C108.888989 215.008912 261.919315 37.000706 479.003492 37.000706S856.181877 215.809137 828.396043 432.370405zM479.170291 124.860752c-162.813133 0-283.144732 146.219199-262.042111 323.482439 20.404726 171.403788 228.493018 448.313515 262.042111 449.860754 33.470299 1.542122 241.851257-290.113447 262.046205-449.860754C763.593132 271.348058 641.987516 124.860752 479.170291 124.860752zM479.68399 608.090499c-97.045243 0-175.720094-78.673827-175.720094-175.720094s78.673827-175.720094 175.720094-175.720094 175.720094 78.673827 175.720094 175.720094S576.730257 608.090499 479.68399 608.090499zM479.68399 344.510358c-48.52518 0-87.860047 39.334867-87.860047 87.860047s39.334867 87.860047 87.860047 87.860047 87.860047-39.334867 87.860047-87.860047S528.20917 344.510358 479.68399 344.510358z" p-id="8863" fill="#BDBDBD"></path></svg>