<?xml version="1.0" standalone="no"?><!DOCTYPE svg PUBLIC "-//W3C//DTD SVG 1.1//EN" "http://www.w3.org/Graphics/SVG/1.1/DTD/svg11.dtd"><svg t="1646454507133" class="icon" viewBox="0 0 1552 1024" version="1.1" xmlns="http://www.w3.org/2000/svg" p-id="11514" xmlns:xlink="http://www.w3.org/1999/xlink" width="34" height="19"><defs><style type="text/css"></style></defs><path d="M1271.741935 541.266581a202.223484 202.223484 0 0 1 201.992259 201.959225 202.256516 202.256516 0 0 1-202.025291 201.959226 202.124387 202.124387 0 0 1-201.893161-201.959226 202.124387 202.124387 0 0 1 201.893161-201.959225m0-78.814968A280.741161 280.741161 0 0 0 990.967742 743.225806a280.774194 280.774194 0 0 0 280.774193 280.774194 280.774194 280.774194 0 0 0 280.774194-280.774194c0-155.086452-125.621677-280.774194-280.774194-280.774193zM280.774194 541.266581a202.256516 202.256516 0 0 1 202.02529 201.959225 202.256516 202.256516 0 0 1-202.058323 201.959226A202.157419 202.157419 0 0 1 78.814968 743.225806a202.157419 202.157419 0 0 1 201.926193-201.959225M280.774194 462.451613A280.708129 280.708129 0 0 0 0 743.225806 280.774194 280.774194 0 0 0 280.774194 1024c155.185548 0 280.774194-125.720774 280.774193-280.774194 0-155.086452-125.588645-280.774194-280.774193-280.774193z" p-id="11515"></path><path d="M879.880258 792.774194H301.386323v-88.196129H700.614194l-213.388388-217.748646 45.914839-46.839742H66.064516l115.282581-150.230709h675.080258L1067.866839 165.16129 1222.193548 330.553806z" p-id="11516"></path><path d="M1268.207484 759.741935l-59.292903-414.786064-311.692387-283.681032-122.087226 37.227355L759.741935 45.947871 910.567226 0l348.721548 317.241806L1321.290323 751.814194z" p-id="11517"></path><path d="M1220.409806 363.090581c-26.194581 4.228129-53.941677-44.032-62.067612-107.685162-8.125935-63.686194 6.705548-118.817032 32.768-123.012129 26.095484-4.261161 53.743484 43.998968 61.803354 107.619097 8.258065 63.78529-6.44129 118.850065-32.503742 123.078194z" p-id="11518"></path></svg>