<?xml version="1.0" standalone="no"?><!DOCTYPE svg PUBLIC "-//W3C//DTD SVG 1.1//EN" "http://www.w3.org/Graphics/SVG/1.1/DTD/svg11.dtd"><svg t="1646453276212" class="icon" viewBox="0 0 1029 1024" version="1.1" xmlns="http://www.w3.org/2000/svg" p-id="8177" width="30" height="25" xmlns:xlink="http://www.w3.org/1999/xlink"><defs><style type="text/css"></style></defs><path d="M936.228571 380.342857h-7.314285l65.828571 80.457143v365.714286c0 29.257143-29.257143 51.2-58.514286 51.2h-117.028571c-29.257143 0-58.514286-21.942857-58.514286-51.2v-80.457143h-512v80.457143c0 29.257143-29.257143 51.2-58.514285 51.2H87.771429c-29.257143 0-58.514286-21.942857-58.514286-51.2v-365.714286l80.457143-80.457143h-21.942857c-21.942857 21.942857-51.2 14.628571-73.142858-7.314286s-14.628571-51.2 7.314286-73.142857c21.942857-14.628571 51.2-14.628571 65.828572 0 29.257143 0 51.2 7.314286 73.142857 21.942857L256 219.428571h541.257143L877.714286 314.514286c21.942857-7.314286 43.885714-14.628571 65.828571-14.628572 21.942857-21.942857 51.2-14.628571 73.142857 7.314286s14.628571 51.2-7.314285 73.142857c-21.942857 14.628571-51.2 14.628571-73.142858 0z m-826.514285 146.285714c-29.257143 36.571429-21.942857 87.771429 14.628571 109.714286 36.571429 21.942857 87.771429 14.628571 117.028572-21.942857 21.942857-36.571429 14.628571-87.771429-21.942858-109.714286-14.628571-7.314286-29.257143-14.628571-43.885714-14.628571-29.257143-7.314286-58.514286 7.314286-65.828571 36.571428z m636.342857-256h-438.857143L197.485714 402.285714h650.971429l-102.4-131.657143z m21.942857 256c-21.942857 36.571429-14.628571 87.771429 21.942857 109.714286 36.571429 21.942857 87.771429 14.628571 109.714286-21.942857 21.942857-36.571429 14.628571-87.771429-21.942857-109.714286-14.628571-7.314286-29.257143-14.628571-43.885715-14.628571-29.257143-7.314286-58.514286 7.314286-65.828571 36.571428z" p-id="8178"></path></svg>